<mxfile host="app.diagrams.net" agent="Mozilla/5.0 (Windows NT 10.0; Win64; x64) AppleWebKit/537.36 (KHTML, like Gecko) Chrome/133.0.0.0 Safari/537.36 OPR/118.0.0.0 (Edition std-2)" version="26.2.14">
  <diagram id="C5RBs43oDa-KdzZeNtuy" name="Page-1">
    <mxGraphModel dx="1855" dy="1088" grid="1" gridSize="10" guides="1" tooltips="1" connect="1" arrows="1" fold="1" page="1" pageScale="1" pageWidth="827" pageHeight="1169" math="0" shadow="0" adaptiveColors="simple">
      <root>
        <mxCell id="WIyWlLk6GJQsqaUBKTNV-0" />
        <mxCell id="WIyWlLk6GJQsqaUBKTNV-1" parent="WIyWlLk6GJQsqaUBKTNV-0" />
        <mxCell id="5a1P8sP_JlJ4V9t3fl8P-82" style="edgeStyle=orthogonalEdgeStyle;rounded=0;orthogonalLoop=1;jettySize=auto;html=1;exitX=0.5;exitY=1;exitDx=0;exitDy=0;entryX=0.5;entryY=0;entryDx=0;entryDy=0;" parent="WIyWlLk6GJQsqaUBKTNV-1" source="WIyWlLk6GJQsqaUBKTNV-3" target="5a1P8sP_JlJ4V9t3fl8P-79" edge="1">
          <mxGeometry relative="1" as="geometry" />
        </mxCell>
        <mxCell id="WIyWlLk6GJQsqaUBKTNV-3" value="newValue = GetNextValue()" style="rounded=1;whiteSpace=wrap;html=1;fontSize=12;glass=0;strokeWidth=1;shadow=0;" parent="WIyWlLk6GJQsqaUBKTNV-1" vertex="1">
          <mxGeometry x="145" y="80" width="150" height="40" as="geometry" />
        </mxCell>
        <mxCell id="5a1P8sP_JlJ4V9t3fl8P-75" value="No" style="edgeStyle=orthogonalEdgeStyle;rounded=0;orthogonalLoop=1;jettySize=auto;html=1;exitX=1;exitY=0.5;exitDx=0;exitDy=0;entryX=0;entryY=0.5;entryDx=0;entryDy=0;" parent="WIyWlLk6GJQsqaUBKTNV-1" source="WIyWlLk6GJQsqaUBKTNV-6" target="5a1P8sP_JlJ4V9t3fl8P-9" edge="1">
          <mxGeometry x="-0.5556" relative="1" as="geometry">
            <mxPoint x="500.5" y="210" as="targetPoint" />
            <mxPoint as="offset" />
          </mxGeometry>
        </mxCell>
        <mxCell id="5a1P8sP_JlJ4V9t3fl8P-78" value="Yes" style="edgeStyle=orthogonalEdgeStyle;rounded=0;orthogonalLoop=1;jettySize=auto;html=1;exitX=0.5;exitY=1;exitDx=0;exitDy=0;entryX=0.5;entryY=0;entryDx=0;entryDy=0;" parent="WIyWlLk6GJQsqaUBKTNV-1" source="WIyWlLk6GJQsqaUBKTNV-6" target="WIyWlLk6GJQsqaUBKTNV-11" edge="1">
          <mxGeometry relative="1" as="geometry">
            <mxPoint as="offset" />
          </mxGeometry>
        </mxCell>
        <mxCell id="WIyWlLk6GJQsqaUBKTNV-6" value="newValue == prevValue?" style="rhombus;whiteSpace=wrap;html=1;shadow=0;fontFamily=Helvetica;fontSize=12;align=center;strokeWidth=1;spacing=6;spacingTop=-4;" parent="WIyWlLk6GJQsqaUBKTNV-1" vertex="1">
          <mxGeometry x="310" y="160" width="100" height="100" as="geometry" />
        </mxCell>
        <mxCell id="5a1P8sP_JlJ4V9t3fl8P-4" style="edgeStyle=orthogonalEdgeStyle;rounded=0;orthogonalLoop=1;jettySize=auto;html=1;exitX=0.5;exitY=1;exitDx=0;exitDy=0;" parent="WIyWlLk6GJQsqaUBKTNV-1" source="WIyWlLk6GJQsqaUBKTNV-11" target="5a1P8sP_JlJ4V9t3fl8P-3" edge="1">
          <mxGeometry relative="1" as="geometry" />
        </mxCell>
        <mxCell id="WIyWlLk6GJQsqaUBKTNV-11" value="repeatCounter++" style="rounded=1;whiteSpace=wrap;html=1;fontSize=12;glass=0;strokeWidth=1;shadow=0;" parent="WIyWlLk6GJQsqaUBKTNV-1" vertex="1">
          <mxGeometry x="300" y="300" width="120" height="40" as="geometry" />
        </mxCell>
        <mxCell id="5a1P8sP_JlJ4V9t3fl8P-20" value="Yes" style="edgeStyle=orthogonalEdgeStyle;rounded=0;orthogonalLoop=1;jettySize=auto;html=1;exitX=1;exitY=0.5;exitDx=0;exitDy=0;entryX=0;entryY=0.5;entryDx=0;entryDy=0;" parent="WIyWlLk6GJQsqaUBKTNV-1" source="5a1P8sP_JlJ4V9t3fl8P-3" target="5a1P8sP_JlJ4V9t3fl8P-12" edge="1">
          <mxGeometry x="-0.569" relative="1" as="geometry">
            <mxPoint x="1" as="offset" />
          </mxGeometry>
        </mxCell>
        <mxCell id="5a1P8sP_JlJ4V9t3fl8P-70" value="No" style="edgeStyle=orthogonalEdgeStyle;rounded=0;orthogonalLoop=1;jettySize=auto;html=1;exitX=0.5;exitY=1;exitDx=0;exitDy=0;entryX=0.5;entryY=0;entryDx=0;entryDy=0;" parent="WIyWlLk6GJQsqaUBKTNV-1" source="5a1P8sP_JlJ4V9t3fl8P-3" target="5a1P8sP_JlJ4V9t3fl8P-43" edge="1">
          <mxGeometry x="-0.8692" relative="1" as="geometry">
            <mxPoint y="1" as="offset" />
          </mxGeometry>
        </mxCell>
        <mxCell id="5a1P8sP_JlJ4V9t3fl8P-3" value="repeatCounter == 255?" style="rhombus;whiteSpace=wrap;html=1;" parent="WIyWlLk6GJQsqaUBKTNV-1" vertex="1">
          <mxGeometry x="297.5" y="377.5" width="125" height="125" as="geometry" />
        </mxCell>
        <mxCell id="5a1P8sP_JlJ4V9t3fl8P-17" value="No" style="edgeStyle=orthogonalEdgeStyle;rounded=0;orthogonalLoop=1;jettySize=auto;html=1;exitX=0.5;exitY=1;exitDx=0;exitDy=0;entryX=0.5;entryY=0;entryDx=0;entryDy=0;" parent="WIyWlLk6GJQsqaUBKTNV-1" source="5a1P8sP_JlJ4V9t3fl8P-9" target="5a1P8sP_JlJ4V9t3fl8P-12" edge="1">
          <mxGeometry x="-0.7692" relative="1" as="geometry">
            <mxPoint x="565.5" y="275" as="sourcePoint" />
            <Array as="points">
              <mxPoint x="583" y="350" />
              <mxPoint x="583" y="350" />
            </Array>
            <mxPoint as="offset" />
          </mxGeometry>
        </mxCell>
        <mxCell id="5a1P8sP_JlJ4V9t3fl8P-19" value="Yes" style="edgeStyle=orthogonalEdgeStyle;rounded=0;orthogonalLoop=1;jettySize=auto;html=1;exitX=1;exitY=0.5;exitDx=0;exitDy=0;" parent="WIyWlLk6GJQsqaUBKTNV-1" source="5a1P8sP_JlJ4V9t3fl8P-9" target="5a1P8sP_JlJ4V9t3fl8P-11" edge="1">
          <mxGeometry x="-0.85" relative="1" as="geometry">
            <mxPoint x="630.5" y="210" as="sourcePoint" />
            <mxPoint as="offset" />
          </mxGeometry>
        </mxCell>
        <mxCell id="5a1P8sP_JlJ4V9t3fl8P-9" value="repeatCounter == 1?" style="rhombus;whiteSpace=wrap;html=1;" parent="WIyWlLk6GJQsqaUBKTNV-1" vertex="1">
          <mxGeometry x="517.5" y="145" width="130" height="130" as="geometry" />
        </mxCell>
        <mxCell id="5a1P8sP_JlJ4V9t3fl8P-31" style="edgeStyle=orthogonalEdgeStyle;rounded=0;orthogonalLoop=1;jettySize=auto;html=1;exitX=0.5;exitY=1;exitDx=0;exitDy=0;entryX=0.5;entryY=0;entryDx=0;entryDy=0;" parent="WIyWlLk6GJQsqaUBKTNV-1" source="5a1P8sP_JlJ4V9t3fl8P-11" target="5a1P8sP_JlJ4V9t3fl8P-29" edge="1">
          <mxGeometry relative="1" as="geometry">
            <Array as="points">
              <mxPoint x="752.5" y="500" />
              <mxPoint x="657.5" y="500" />
            </Array>
          </mxGeometry>
        </mxCell>
        <mxCell id="5a1P8sP_JlJ4V9t3fl8P-11" value="tagByte[i] = 0" style="rounded=1;whiteSpace=wrap;html=1;" parent="WIyWlLk6GJQsqaUBKTNV-1" vertex="1">
          <mxGeometry x="697.5" y="405" width="110" height="70" as="geometry" />
        </mxCell>
        <mxCell id="5a1P8sP_JlJ4V9t3fl8P-30" style="edgeStyle=orthogonalEdgeStyle;rounded=0;orthogonalLoop=1;jettySize=auto;html=1;exitX=0.5;exitY=1;exitDx=0;exitDy=0;" parent="WIyWlLk6GJQsqaUBKTNV-1" source="5a1P8sP_JlJ4V9t3fl8P-12" target="5a1P8sP_JlJ4V9t3fl8P-29" edge="1">
          <mxGeometry relative="1" as="geometry" />
        </mxCell>
        <mxCell id="5a1P8sP_JlJ4V9t3fl8P-12" value="tagByte[i] = 1&lt;div&gt;localStream.write(repeatCounter)&lt;/div&gt;" style="rounded=1;whiteSpace=wrap;html=1;" parent="WIyWlLk6GJQsqaUBKTNV-1" vertex="1">
          <mxGeometry x="480" y="405" width="205" height="70" as="geometry" />
        </mxCell>
        <mxCell id="5a1P8sP_JlJ4V9t3fl8P-15" value="Values:&lt;div&gt;-tag byte[8]&lt;/div&gt;&lt;div style=&quot;&quot;&gt;- prevValue&lt;/div&gt;&lt;div style=&quot;&quot;&gt;- newValue&lt;/div&gt;&lt;div style=&quot;&quot;&gt;- repeatCounter&lt;/div&gt;&lt;div style=&quot;&quot;&gt;- localStream&lt;/div&gt;" style="text;html=1;align=left;verticalAlign=middle;resizable=0;points=[];autosize=1;strokeColor=none;fillColor=none;" parent="WIyWlLk6GJQsqaUBKTNV-1" vertex="1">
          <mxGeometry x="640" y="80" width="110" height="100" as="geometry" />
        </mxCell>
        <mxCell id="5a1P8sP_JlJ4V9t3fl8P-32" style="edgeStyle=orthogonalEdgeStyle;rounded=0;orthogonalLoop=1;jettySize=auto;html=1;exitX=0.5;exitY=1;exitDx=0;exitDy=0;entryX=0.5;entryY=0;entryDx=0;entryDy=0;" parent="WIyWlLk6GJQsqaUBKTNV-1" source="5a1P8sP_JlJ4V9t3fl8P-29" target="5a1P8sP_JlJ4V9t3fl8P-24" edge="1">
          <mxGeometry relative="1" as="geometry" />
        </mxCell>
        <mxCell id="5a1P8sP_JlJ4V9t3fl8P-29" value="&lt;div&gt;localStream.write(prevValue)&lt;/div&gt;&lt;div&gt;repeatCounter = 1&lt;/div&gt;&lt;div&gt;i++&lt;/div&gt;" style="rounded=1;whiteSpace=wrap;html=1;" parent="WIyWlLk6GJQsqaUBKTNV-1" vertex="1">
          <mxGeometry x="557.5" y="524.5" width="200" height="60" as="geometry" />
        </mxCell>
        <mxCell id="5a1P8sP_JlJ4V9t3fl8P-73" style="edgeStyle=orthogonalEdgeStyle;rounded=0;orthogonalLoop=1;jettySize=auto;html=1;exitX=0.5;exitY=1;exitDx=0;exitDy=0;entryX=0.5;entryY=0;entryDx=0;entryDy=0;" parent="WIyWlLk6GJQsqaUBKTNV-1" source="5a1P8sP_JlJ4V9t3fl8P-43" target="5a1P8sP_JlJ4V9t3fl8P-72" edge="1">
          <mxGeometry relative="1" as="geometry" />
        </mxCell>
        <mxCell id="5a1P8sP_JlJ4V9t3fl8P-43" value="prevValue = newValue" style="rounded=1;whiteSpace=wrap;html=1;" parent="WIyWlLk6GJQsqaUBKTNV-1" vertex="1">
          <mxGeometry x="150" y="630" width="140" height="60" as="geometry" />
        </mxCell>
        <mxCell id="5a1P8sP_JlJ4V9t3fl8P-67" style="edgeStyle=orthogonalEdgeStyle;rounded=0;orthogonalLoop=1;jettySize=auto;html=1;exitX=0;exitY=0.5;exitDx=0;exitDy=0;entryX=1;entryY=0.5;entryDx=0;entryDy=0;" parent="WIyWlLk6GJQsqaUBKTNV-1" source="5a1P8sP_JlJ4V9t3fl8P-27" target="5a1P8sP_JlJ4V9t3fl8P-43" edge="1">
          <mxGeometry relative="1" as="geometry" />
        </mxCell>
        <mxCell id="5a1P8sP_JlJ4V9t3fl8P-27" value="mainStream.write(tagByte)&lt;div&gt;mainStream.Write(localStream)&lt;/div&gt;&lt;div&gt;localStream = new()&lt;/div&gt;&lt;div&gt;tagByte = new()&lt;/div&gt;&lt;div&gt;i = 0&lt;/div&gt;" style="rounded=1;whiteSpace=wrap;html=1;" parent="WIyWlLk6GJQsqaUBKTNV-1" vertex="1">
          <mxGeometry x="445" y="740" width="190" height="70" as="geometry" />
        </mxCell>
        <mxCell id="5a1P8sP_JlJ4V9t3fl8P-28" value="Yes" style="edgeStyle=orthogonalEdgeStyle;rounded=0;orthogonalLoop=1;jettySize=auto;html=1;exitX=0.5;exitY=1;exitDx=0;exitDy=0;entryX=0.5;entryY=0;entryDx=0;entryDy=0;" parent="WIyWlLk6GJQsqaUBKTNV-1" source="5a1P8sP_JlJ4V9t3fl8P-24" target="5a1P8sP_JlJ4V9t3fl8P-27" edge="1">
          <mxGeometry relative="1" as="geometry" />
        </mxCell>
        <mxCell id="5a1P8sP_JlJ4V9t3fl8P-71" value="No" style="edgeStyle=orthogonalEdgeStyle;rounded=0;orthogonalLoop=1;jettySize=auto;html=1;exitX=0;exitY=0.5;exitDx=0;exitDy=0;entryX=1;entryY=0.5;entryDx=0;entryDy=0;" parent="WIyWlLk6GJQsqaUBKTNV-1" source="5a1P8sP_JlJ4V9t3fl8P-24" target="5a1P8sP_JlJ4V9t3fl8P-43" edge="1">
          <mxGeometry x="-0.8095" relative="1" as="geometry">
            <mxPoint as="offset" />
          </mxGeometry>
        </mxCell>
        <mxCell id="5a1P8sP_JlJ4V9t3fl8P-24" value="i == 8?" style="rhombus;whiteSpace=wrap;html=1;" parent="WIyWlLk6GJQsqaUBKTNV-1" vertex="1">
          <mxGeometry x="500" y="620" width="80" height="80" as="geometry" />
        </mxCell>
        <mxCell id="5a1P8sP_JlJ4V9t3fl8P-58" value="ENCODER" style="text;html=1;align=left;verticalAlign=middle;resizable=0;points=[];autosize=1;strokeColor=none;fillColor=none;fontStyle=1;fontSize=28;" parent="WIyWlLk6GJQsqaUBKTNV-1" vertex="1">
          <mxGeometry x="40" y="10" width="160" height="50" as="geometry" />
        </mxCell>
        <mxCell id="5a1P8sP_JlJ4V9t3fl8P-74" value="No" style="edgeStyle=orthogonalEdgeStyle;rounded=0;orthogonalLoop=1;jettySize=auto;html=1;exitX=0;exitY=0.5;exitDx=0;exitDy=0;entryX=0;entryY=0.5;entryDx=0;entryDy=0;" parent="WIyWlLk6GJQsqaUBKTNV-1" source="5a1P8sP_JlJ4V9t3fl8P-72" target="WIyWlLk6GJQsqaUBKTNV-3" edge="1">
          <mxGeometry x="-0.9463" relative="1" as="geometry">
            <mxPoint as="offset" />
          </mxGeometry>
        </mxCell>
        <mxCell id="5a1P8sP_JlJ4V9t3fl8P-77" value="Yes" style="edgeStyle=orthogonalEdgeStyle;rounded=0;orthogonalLoop=1;jettySize=auto;html=1;exitX=0.5;exitY=1;exitDx=0;exitDy=0;entryX=0.5;entryY=0;entryDx=0;entryDy=0;" parent="WIyWlLk6GJQsqaUBKTNV-1" source="5a1P8sP_JlJ4V9t3fl8P-72" target="5a1P8sP_JlJ4V9t3fl8P-76" edge="1">
          <mxGeometry x="-0.2" relative="1" as="geometry">
            <mxPoint as="offset" />
          </mxGeometry>
        </mxCell>
        <mxCell id="5a1P8sP_JlJ4V9t3fl8P-72" value="Is last?" style="rhombus;whiteSpace=wrap;html=1;" parent="WIyWlLk6GJQsqaUBKTNV-1" vertex="1">
          <mxGeometry x="180" y="730" width="80" height="80" as="geometry" />
        </mxCell>
        <mxCell id="5a1P8sP_JlJ4V9t3fl8P-89" value="No" style="edgeStyle=orthogonalEdgeStyle;rounded=0;orthogonalLoop=1;jettySize=auto;html=1;exitX=1;exitY=0.5;exitDx=0;exitDy=0;entryX=0;entryY=0.5;entryDx=0;entryDy=0;" parent="WIyWlLk6GJQsqaUBKTNV-1" source="5a1P8sP_JlJ4V9t3fl8P-76" target="5a1P8sP_JlJ4V9t3fl8P-87" edge="1">
          <mxGeometry x="-0.3333" relative="1" as="geometry">
            <mxPoint as="offset" />
          </mxGeometry>
        </mxCell>
        <mxCell id="5a1P8sP_JlJ4V9t3fl8P-91" value="Yes" style="edgeStyle=orthogonalEdgeStyle;rounded=0;orthogonalLoop=1;jettySize=auto;html=1;exitX=0.5;exitY=1;exitDx=0;exitDy=0;entryX=0;entryY=0.5;entryDx=0;entryDy=0;" parent="WIyWlLk6GJQsqaUBKTNV-1" source="5a1P8sP_JlJ4V9t3fl8P-76" target="5a1P8sP_JlJ4V9t3fl8P-90" edge="1">
          <mxGeometry x="-0.7241" relative="1" as="geometry">
            <mxPoint as="offset" />
          </mxGeometry>
        </mxCell>
        <mxCell id="5a1P8sP_JlJ4V9t3fl8P-76" value="repeatCounter == 1?" style="rhombus;whiteSpace=wrap;html=1;" parent="WIyWlLk6GJQsqaUBKTNV-1" vertex="1">
          <mxGeometry x="155" y="860" width="130" height="130" as="geometry" />
        </mxCell>
        <mxCell id="5a1P8sP_JlJ4V9t3fl8P-80" value="No" style="edgeStyle=orthogonalEdgeStyle;rounded=0;orthogonalLoop=1;jettySize=auto;html=1;exitX=1;exitY=0.5;exitDx=0;exitDy=0;entryX=0;entryY=0.5;entryDx=0;entryDy=0;" parent="WIyWlLk6GJQsqaUBKTNV-1" source="5a1P8sP_JlJ4V9t3fl8P-79" target="WIyWlLk6GJQsqaUBKTNV-6" edge="1">
          <mxGeometry x="-0.2" relative="1" as="geometry">
            <mxPoint as="offset" />
          </mxGeometry>
        </mxCell>
        <mxCell id="5a1P8sP_JlJ4V9t3fl8P-81" value="Yes" style="edgeStyle=orthogonalEdgeStyle;rounded=0;orthogonalLoop=1;jettySize=auto;html=1;exitX=0.5;exitY=1;exitDx=0;exitDy=0;entryX=0.5;entryY=0;entryDx=0;entryDy=0;" parent="WIyWlLk6GJQsqaUBKTNV-1" source="5a1P8sP_JlJ4V9t3fl8P-79" target="5a1P8sP_JlJ4V9t3fl8P-83" edge="1">
          <mxGeometry x="-0.7143" relative="1" as="geometry">
            <Array as="points">
              <mxPoint x="220" y="340" />
              <mxPoint x="220" y="340" />
            </Array>
            <mxPoint as="offset" />
          </mxGeometry>
        </mxCell>
        <mxCell id="5a1P8sP_JlJ4V9t3fl8P-79" value="Is first?" style="rhombus;whiteSpace=wrap;html=1;" parent="WIyWlLk6GJQsqaUBKTNV-1" vertex="1">
          <mxGeometry x="180" y="170" width="80" height="80" as="geometry" />
        </mxCell>
        <mxCell id="5a1P8sP_JlJ4V9t3fl8P-84" style="edgeStyle=orthogonalEdgeStyle;rounded=0;orthogonalLoop=1;jettySize=auto;html=1;exitX=0.5;exitY=1;exitDx=0;exitDy=0;entryX=0.5;entryY=0;entryDx=0;entryDy=0;" parent="WIyWlLk6GJQsqaUBKTNV-1" source="5a1P8sP_JlJ4V9t3fl8P-83" target="5a1P8sP_JlJ4V9t3fl8P-43" edge="1">
          <mxGeometry relative="1" as="geometry" />
        </mxCell>
        <mxCell id="5a1P8sP_JlJ4V9t3fl8P-83" value="repeatCounter = 1" style="rounded=1;whiteSpace=wrap;html=1;" parent="WIyWlLk6GJQsqaUBKTNV-1" vertex="1">
          <mxGeometry x="160" y="410" width="120" height="60" as="geometry" />
        </mxCell>
        <mxCell id="5a1P8sP_JlJ4V9t3fl8P-86" style="edgeStyle=orthogonalEdgeStyle;rounded=0;orthogonalLoop=1;jettySize=auto;html=1;exitX=0;exitY=0.5;exitDx=0;exitDy=0;entryX=1;entryY=0.5;entryDx=0;entryDy=0;" parent="WIyWlLk6GJQsqaUBKTNV-1" source="5a1P8sP_JlJ4V9t3fl8P-85" target="WIyWlLk6GJQsqaUBKTNV-3" edge="1">
          <mxGeometry relative="1" as="geometry" />
        </mxCell>
        <mxCell id="5a1P8sP_JlJ4V9t3fl8P-85" value="START" style="rounded=1;whiteSpace=wrap;html=1;" parent="WIyWlLk6GJQsqaUBKTNV-1" vertex="1">
          <mxGeometry x="398" y="70" width="120" height="60" as="geometry" />
        </mxCell>
        <mxCell id="5a1P8sP_JlJ4V9t3fl8P-93" style="edgeStyle=orthogonalEdgeStyle;rounded=0;orthogonalLoop=1;jettySize=auto;html=1;exitX=1;exitY=0.5;exitDx=0;exitDy=0;entryX=0;entryY=0.5;entryDx=0;entryDy=0;" parent="WIyWlLk6GJQsqaUBKTNV-1" source="5a1P8sP_JlJ4V9t3fl8P-87" target="5a1P8sP_JlJ4V9t3fl8P-92" edge="1">
          <mxGeometry relative="1" as="geometry" />
        </mxCell>
        <mxCell id="5a1P8sP_JlJ4V9t3fl8P-87" value="tagByte[i] = 1&lt;div&gt;localStream.write(repeatCounter)&lt;/div&gt;" style="rounded=1;whiteSpace=wrap;html=1;" parent="WIyWlLk6GJQsqaUBKTNV-1" vertex="1">
          <mxGeometry x="330" y="890" width="180" height="70" as="geometry" />
        </mxCell>
        <mxCell id="5a1P8sP_JlJ4V9t3fl8P-95" style="edgeStyle=orthogonalEdgeStyle;rounded=0;orthogonalLoop=1;jettySize=auto;html=1;exitX=1;exitY=0.5;exitDx=0;exitDy=0;entryX=0;entryY=0.5;entryDx=0;entryDy=0;" parent="WIyWlLk6GJQsqaUBKTNV-1" source="5a1P8sP_JlJ4V9t3fl8P-90" target="5a1P8sP_JlJ4V9t3fl8P-92" edge="1">
          <mxGeometry relative="1" as="geometry">
            <Array as="points">
              <mxPoint x="530" y="1025" />
              <mxPoint x="530" y="970" />
            </Array>
          </mxGeometry>
        </mxCell>
        <mxCell id="5a1P8sP_JlJ4V9t3fl8P-90" value="tagByte[i] = 0" style="rounded=1;whiteSpace=wrap;html=1;" parent="WIyWlLk6GJQsqaUBKTNV-1" vertex="1">
          <mxGeometry x="330" y="990" width="110" height="70" as="geometry" />
        </mxCell>
        <mxCell id="5a1P8sP_JlJ4V9t3fl8P-98" style="edgeStyle=orthogonalEdgeStyle;rounded=0;orthogonalLoop=1;jettySize=auto;html=1;exitX=0.5;exitY=1;exitDx=0;exitDy=0;entryX=0.5;entryY=0;entryDx=0;entryDy=0;" parent="WIyWlLk6GJQsqaUBKTNV-1" source="5a1P8sP_JlJ4V9t3fl8P-92" target="5a1P8sP_JlJ4V9t3fl8P-97" edge="1">
          <mxGeometry relative="1" as="geometry" />
        </mxCell>
        <mxCell id="5a1P8sP_JlJ4V9t3fl8P-92" value="&lt;div&gt;localStream.write(prevValue)&lt;/div&gt;&lt;div&gt;mainStream.Write(tagByte)&lt;/div&gt;&lt;div&gt;mainStream.Write(localStream)&lt;/div&gt;" style="rounded=1;whiteSpace=wrap;html=1;" parent="WIyWlLk6GJQsqaUBKTNV-1" vertex="1">
          <mxGeometry x="550" y="940" width="200" height="60" as="geometry" />
        </mxCell>
        <mxCell id="5a1P8sP_JlJ4V9t3fl8P-97" value="END" style="rounded=1;whiteSpace=wrap;html=1;" parent="WIyWlLk6GJQsqaUBKTNV-1" vertex="1">
          <mxGeometry x="590" y="1040" width="120" height="60" as="geometry" />
        </mxCell>
        <mxCell id="5a1P8sP_JlJ4V9t3fl8P-99" value="" style="swimlane;startSize=0;" parent="WIyWlLk6GJQsqaUBKTNV-1" vertex="1">
          <mxGeometry x="40" y="50" width="780" height="1060" as="geometry" />
        </mxCell>
        <mxCell id="5a1P8sP_JlJ4V9t3fl8P-100" value="DECODER" style="text;html=1;align=left;verticalAlign=middle;resizable=0;points=[];autosize=1;strokeColor=none;fillColor=none;fontStyle=1;fontSize=28;" parent="WIyWlLk6GJQsqaUBKTNV-1" vertex="1">
          <mxGeometry x="840" y="10" width="160" height="50" as="geometry" />
        </mxCell>
        <mxCell id="5a1P8sP_JlJ4V9t3fl8P-105" style="edgeStyle=orthogonalEdgeStyle;rounded=0;orthogonalLoop=1;jettySize=auto;html=1;exitX=0.5;exitY=1;exitDx=0;exitDy=0;entryX=0.5;entryY=0;entryDx=0;entryDy=0;" parent="WIyWlLk6GJQsqaUBKTNV-1" source="5a1P8sP_JlJ4V9t3fl8P-103" target="5a1P8sP_JlJ4V9t3fl8P-104" edge="1">
          <mxGeometry relative="1" as="geometry" />
        </mxCell>
        <mxCell id="5a1P8sP_JlJ4V9t3fl8P-107" value="No" style="edgeStyle=orthogonalEdgeStyle;rounded=0;orthogonalLoop=1;jettySize=auto;html=1;exitX=1;exitY=0.5;exitDx=0;exitDy=0;entryX=0;entryY=0.5;entryDx=0;entryDy=0;" parent="WIyWlLk6GJQsqaUBKTNV-1" source="5a1P8sP_JlJ4V9t3fl8P-104" target="5a1P8sP_JlJ4V9t3fl8P-106" edge="1">
          <mxGeometry x="-0.6471" relative="1" as="geometry">
            <Array as="points">
              <mxPoint x="1200" y="275" />
              <mxPoint x="1200" y="275" />
            </Array>
            <mxPoint as="offset" />
          </mxGeometry>
        </mxCell>
        <mxCell id="5a1P8sP_JlJ4V9t3fl8P-110" value="Yes" style="edgeStyle=orthogonalEdgeStyle;rounded=0;orthogonalLoop=1;jettySize=auto;html=1;exitX=0;exitY=0.5;exitDx=0;exitDy=0;entryX=1;entryY=0.5;entryDx=0;entryDy=0;" parent="WIyWlLk6GJQsqaUBKTNV-1" source="5a1P8sP_JlJ4V9t3fl8P-104" target="5a1P8sP_JlJ4V9t3fl8P-116" edge="1">
          <mxGeometry x="-0.6471" relative="1" as="geometry">
            <mxPoint x="1050" y="290" as="sourcePoint" />
            <mxPoint x="1040" y="450" as="targetPoint" />
            <Array as="points" />
            <mxPoint as="offset" />
          </mxGeometry>
        </mxCell>
        <mxCell id="5a1P8sP_JlJ4V9t3fl8P-104" value="Have tagByte?" style="rhombus;whiteSpace=wrap;html=1;" parent="WIyWlLk6GJQsqaUBKTNV-1" vertex="1">
          <mxGeometry x="1095" y="235" width="80" height="80" as="geometry" />
        </mxCell>
        <mxCell id="5a1P8sP_JlJ4V9t3fl8P-108" style="edgeStyle=orthogonalEdgeStyle;rounded=0;orthogonalLoop=1;jettySize=auto;html=1;exitX=0.5;exitY=0;exitDx=0;exitDy=0;entryX=1;entryY=0.5;entryDx=0;entryDy=0;" parent="WIyWlLk6GJQsqaUBKTNV-1" source="5a1P8sP_JlJ4V9t3fl8P-106" target="5a1P8sP_JlJ4V9t3fl8P-103" edge="1">
          <mxGeometry relative="1" as="geometry" />
        </mxCell>
        <mxCell id="5a1P8sP_JlJ4V9t3fl8P-106" value="tagByte = newByte&lt;div&gt;i = 0&lt;/div&gt;" style="rounded=1;whiteSpace=wrap;html=1;" parent="WIyWlLk6GJQsqaUBKTNV-1" vertex="1">
          <mxGeometry x="1260" y="245" width="120" height="60" as="geometry" />
        </mxCell>
        <mxCell id="5a1P8sP_JlJ4V9t3fl8P-113" value="Yes" style="edgeStyle=orthogonalEdgeStyle;rounded=0;orthogonalLoop=1;jettySize=auto;html=1;exitX=1;exitY=0.5;exitDx=0;exitDy=0;entryX=0;entryY=0.5;entryDx=0;entryDy=0;" parent="WIyWlLk6GJQsqaUBKTNV-1" source="5a1P8sP_JlJ4V9t3fl8P-111" target="5a1P8sP_JlJ4V9t3fl8P-112" edge="1">
          <mxGeometry x="-0.3333" relative="1" as="geometry">
            <mxPoint as="offset" />
          </mxGeometry>
        </mxCell>
        <mxCell id="5a1P8sP_JlJ4V9t3fl8P-115" value="No" style="edgeStyle=orthogonalEdgeStyle;rounded=0;orthogonalLoop=1;jettySize=auto;html=1;exitX=0.5;exitY=1;exitDx=0;exitDy=0;entryX=0.5;entryY=0;entryDx=0;entryDy=0;" parent="WIyWlLk6GJQsqaUBKTNV-1" source="5a1P8sP_JlJ4V9t3fl8P-111" target="5a1P8sP_JlJ4V9t3fl8P-119" edge="1">
          <mxGeometry x="-0.5349" relative="1" as="geometry">
            <mxPoint x="950" y="460" as="targetPoint" />
            <mxPoint as="offset" />
          </mxGeometry>
        </mxCell>
        <mxCell id="5a1P8sP_JlJ4V9t3fl8P-111" value="tagByte[i]&lt;div&gt;== 0?&lt;/div&gt;" style="rhombus;whiteSpace=wrap;html=1;" parent="WIyWlLk6GJQsqaUBKTNV-1" vertex="1">
          <mxGeometry x="910" y="340" width="80" height="80" as="geometry" />
        </mxCell>
        <mxCell id="5a1P8sP_JlJ4V9t3fl8P-133" style="edgeStyle=orthogonalEdgeStyle;rounded=0;orthogonalLoop=1;jettySize=auto;html=1;exitX=1;exitY=0.5;exitDx=0;exitDy=0;entryX=0;entryY=0.5;entryDx=0;entryDy=0;" parent="WIyWlLk6GJQsqaUBKTNV-1" source="5a1P8sP_JlJ4V9t3fl8P-112" target="5a1P8sP_JlJ4V9t3fl8P-131" edge="1">
          <mxGeometry relative="1" as="geometry" />
        </mxCell>
        <mxCell id="5a1P8sP_JlJ4V9t3fl8P-112" value="setNextvalue(value)&lt;div&gt;i++&lt;/div&gt;" style="rounded=1;whiteSpace=wrap;html=1;" parent="WIyWlLk6GJQsqaUBKTNV-1" vertex="1">
          <mxGeometry x="1050" y="350" width="120" height="60" as="geometry" />
        </mxCell>
        <mxCell id="5a1P8sP_JlJ4V9t3fl8P-134" style="edgeStyle=orthogonalEdgeStyle;rounded=0;orthogonalLoop=1;jettySize=auto;html=1;exitX=1;exitY=0.5;exitDx=0;exitDy=0;entryX=1;entryY=0.5;entryDx=0;entryDy=0;" parent="WIyWlLk6GJQsqaUBKTNV-1" source="5a1P8sP_JlJ4V9t3fl8P-114" target="5a1P8sP_JlJ4V9t3fl8P-103" edge="1">
          <mxGeometry relative="1" as="geometry">
            <Array as="points">
              <mxPoint x="1460" y="725" />
              <mxPoint x="1460" y="145" />
            </Array>
          </mxGeometry>
        </mxCell>
        <mxCell id="5a1P8sP_JlJ4V9t3fl8P-114" value="repeatCount = value" style="rounded=1;whiteSpace=wrap;html=1;" parent="WIyWlLk6GJQsqaUBKTNV-1" vertex="1">
          <mxGeometry x="880" y="695" width="140" height="60" as="geometry" />
        </mxCell>
        <mxCell id="5a1P8sP_JlJ4V9t3fl8P-117" style="edgeStyle=orthogonalEdgeStyle;rounded=0;orthogonalLoop=1;jettySize=auto;html=1;exitX=0.5;exitY=1;exitDx=0;exitDy=0;entryX=0.5;entryY=0;entryDx=0;entryDy=0;" parent="WIyWlLk6GJQsqaUBKTNV-1" source="5a1P8sP_JlJ4V9t3fl8P-116" target="5a1P8sP_JlJ4V9t3fl8P-111" edge="1">
          <mxGeometry relative="1" as="geometry" />
        </mxCell>
        <mxCell id="5a1P8sP_JlJ4V9t3fl8P-116" value="value = newByte.toInt()" style="rounded=1;whiteSpace=wrap;html=1;" parent="WIyWlLk6GJQsqaUBKTNV-1" vertex="1">
          <mxGeometry x="890" y="245" width="120" height="60" as="geometry" />
        </mxCell>
        <mxCell id="5a1P8sP_JlJ4V9t3fl8P-120" value="No" style="edgeStyle=orthogonalEdgeStyle;rounded=0;orthogonalLoop=1;jettySize=auto;html=1;exitX=0.5;exitY=1;exitDx=0;exitDy=0;entryX=0.5;entryY=0;entryDx=0;entryDy=0;" parent="WIyWlLk6GJQsqaUBKTNV-1" source="5a1P8sP_JlJ4V9t3fl8P-119" target="5a1P8sP_JlJ4V9t3fl8P-114" edge="1">
          <mxGeometry x="-0.5294" relative="1" as="geometry">
            <mxPoint as="offset" />
          </mxGeometry>
        </mxCell>
        <mxCell id="5a1P8sP_JlJ4V9t3fl8P-122" value="Yes" style="edgeStyle=orthogonalEdgeStyle;rounded=0;orthogonalLoop=1;jettySize=auto;html=1;exitX=1;exitY=0.5;exitDx=0;exitDy=0;entryX=0;entryY=0.5;entryDx=0;entryDy=0;" parent="WIyWlLk6GJQsqaUBKTNV-1" source="5a1P8sP_JlJ4V9t3fl8P-119" target="5a1P8sP_JlJ4V9t3fl8P-121" edge="1">
          <mxGeometry x="-0.4545" relative="1" as="geometry">
            <mxPoint as="offset" />
          </mxGeometry>
        </mxCell>
        <mxCell id="5a1P8sP_JlJ4V9t3fl8P-119" value="repeatCounter &amp;gt;0?" style="rhombus;whiteSpace=wrap;html=1;" parent="WIyWlLk6GJQsqaUBKTNV-1" vertex="1">
          <mxGeometry x="895" y="500" width="110" height="110" as="geometry" />
        </mxCell>
        <mxCell id="5a1P8sP_JlJ4V9t3fl8P-124" style="edgeStyle=orthogonalEdgeStyle;rounded=0;orthogonalLoop=1;jettySize=auto;html=1;exitX=1;exitY=0.5;exitDx=0;exitDy=0;entryX=0;entryY=0.5;entryDx=0;entryDy=0;" parent="WIyWlLk6GJQsqaUBKTNV-1" source="5a1P8sP_JlJ4V9t3fl8P-121" target="5a1P8sP_JlJ4V9t3fl8P-123" edge="1">
          <mxGeometry relative="1" as="geometry" />
        </mxCell>
        <mxCell id="5a1P8sP_JlJ4V9t3fl8P-121" value="setNextValue(value)&lt;div&gt;repeatCounter--;&lt;/div&gt;" style="rounded=1;whiteSpace=wrap;html=1;" parent="WIyWlLk6GJQsqaUBKTNV-1" vertex="1">
          <mxGeometry x="1050" y="525" width="120" height="60" as="geometry" />
        </mxCell>
        <mxCell id="5a1P8sP_JlJ4V9t3fl8P-125" value="No" style="edgeStyle=orthogonalEdgeStyle;rounded=0;orthogonalLoop=1;jettySize=auto;html=1;exitX=0.5;exitY=1;exitDx=0;exitDy=0;entryX=1;entryY=0.5;entryDx=0;entryDy=0;" parent="WIyWlLk6GJQsqaUBKTNV-1" source="5a1P8sP_JlJ4V9t3fl8P-123" target="5a1P8sP_JlJ4V9t3fl8P-103" edge="1">
          <mxGeometry x="-0.9805" relative="1" as="geometry">
            <mxPoint x="1225" y="474.9999999999999" as="sourcePoint" />
            <mxPoint x="1210" y="70" as="targetPoint" />
            <Array as="points">
              <mxPoint x="1275" y="630" />
              <mxPoint x="1460" y="630" />
              <mxPoint x="1460" y="145" />
            </Array>
            <mxPoint as="offset" />
          </mxGeometry>
        </mxCell>
        <mxCell id="5a1P8sP_JlJ4V9t3fl8P-130" value="Yes" style="edgeStyle=orthogonalEdgeStyle;rounded=0;orthogonalLoop=1;jettySize=auto;html=1;" parent="WIyWlLk6GJQsqaUBKTNV-1" source="5a1P8sP_JlJ4V9t3fl8P-123" target="5a1P8sP_JlJ4V9t3fl8P-128" edge="1">
          <mxGeometry x="-0.619" relative="1" as="geometry">
            <mxPoint y="1" as="offset" />
          </mxGeometry>
        </mxCell>
        <mxCell id="5a1P8sP_JlJ4V9t3fl8P-123" value="repeatCounter == 0?" style="rhombus;whiteSpace=wrap;html=1;" parent="WIyWlLk6GJQsqaUBKTNV-1" vertex="1">
          <mxGeometry x="1230" y="510" width="90" height="90" as="geometry" />
        </mxCell>
        <mxCell id="5a1P8sP_JlJ4V9t3fl8P-135" style="edgeStyle=orthogonalEdgeStyle;rounded=0;orthogonalLoop=1;jettySize=auto;html=1;exitX=0.5;exitY=0;exitDx=0;exitDy=0;entryX=0;entryY=0.5;entryDx=0;entryDy=0;" parent="WIyWlLk6GJQsqaUBKTNV-1" source="5a1P8sP_JlJ4V9t3fl8P-128" target="5a1P8sP_JlJ4V9t3fl8P-131" edge="1">
          <mxGeometry relative="1" as="geometry" />
        </mxCell>
        <mxCell id="5a1P8sP_JlJ4V9t3fl8P-128" value="i++" style="rounded=1;whiteSpace=wrap;html=1;" parent="WIyWlLk6GJQsqaUBKTNV-1" vertex="1">
          <mxGeometry x="1240" y="417.5" width="70" height="40" as="geometry" />
        </mxCell>
        <mxCell id="5a1P8sP_JlJ4V9t3fl8P-136" value="No" style="edgeStyle=orthogonalEdgeStyle;rounded=0;orthogonalLoop=1;jettySize=auto;html=1;exitX=1;exitY=0.5;exitDx=0;exitDy=0;entryX=1;entryY=0.5;entryDx=0;entryDy=0;" parent="WIyWlLk6GJQsqaUBKTNV-1" source="5a1P8sP_JlJ4V9t3fl8P-131" target="5a1P8sP_JlJ4V9t3fl8P-103" edge="1">
          <mxGeometry x="-0.9223" relative="1" as="geometry">
            <Array as="points">
              <mxPoint x="1460" y="380" />
              <mxPoint x="1460" y="145" />
            </Array>
            <mxPoint as="offset" />
          </mxGeometry>
        </mxCell>
        <mxCell id="5a1P8sP_JlJ4V9t3fl8P-142" value="No" style="edgeLabel;html=1;align=center;verticalAlign=middle;resizable=0;points=[];" parent="5a1P8sP_JlJ4V9t3fl8P-136" vertex="1" connectable="0">
          <mxGeometry x="0.3482" y="2" relative="1" as="geometry">
            <mxPoint x="1" y="-2" as="offset" />
          </mxGeometry>
        </mxCell>
        <mxCell id="5a1P8sP_JlJ4V9t3fl8P-138" value="Yes" style="edgeStyle=orthogonalEdgeStyle;rounded=0;orthogonalLoop=1;jettySize=auto;html=1;exitX=0.5;exitY=1;exitDx=0;exitDy=0;entryX=0.5;entryY=0;entryDx=0;entryDy=0;" parent="WIyWlLk6GJQsqaUBKTNV-1" source="5a1P8sP_JlJ4V9t3fl8P-131" target="5a1P8sP_JlJ4V9t3fl8P-137" edge="1">
          <mxGeometry relative="1" as="geometry" />
        </mxCell>
        <mxCell id="5a1P8sP_JlJ4V9t3fl8P-131" value="i == 8?" style="rhombus;whiteSpace=wrap;html=1;" parent="WIyWlLk6GJQsqaUBKTNV-1" vertex="1">
          <mxGeometry x="1330" y="340" width="80" height="80" as="geometry" />
        </mxCell>
        <mxCell id="5a1P8sP_JlJ4V9t3fl8P-137" value="tagByte = null" style="rounded=1;whiteSpace=wrap;html=1;" parent="WIyWlLk6GJQsqaUBKTNV-1" vertex="1">
          <mxGeometry x="1325" y="457.5" width="90" height="60" as="geometry" />
        </mxCell>
        <mxCell id="5a1P8sP_JlJ4V9t3fl8P-141" value="" style="edgeStyle=orthogonalEdgeStyle;rounded=0;orthogonalLoop=1;jettySize=auto;html=1;exitX=1;exitY=0.5;exitDx=0;exitDy=0;entryX=0.5;entryY=1;entryDx=0;entryDy=0;" parent="WIyWlLk6GJQsqaUBKTNV-1" source="5a1P8sP_JlJ4V9t3fl8P-137" target="5a1P8sP_JlJ4V9t3fl8P-140" edge="1">
          <mxGeometry relative="1" as="geometry">
            <mxPoint x="1415" y="487" as="sourcePoint" />
            <mxPoint x="1220" y="155" as="targetPoint" />
            <Array as="points">
              <mxPoint x="1460" y="488" />
            </Array>
          </mxGeometry>
        </mxCell>
        <mxCell id="5a1P8sP_JlJ4V9t3fl8P-146" value="" style="swimlane;startSize=0;" parent="WIyWlLk6GJQsqaUBKTNV-1" vertex="1">
          <mxGeometry x="840" y="50" width="675" height="725" as="geometry" />
        </mxCell>
        <mxCell id="5a1P8sP_JlJ4V9t3fl8P-118" value="Values:&lt;div&gt;-tag byte[8]&lt;/div&gt;&lt;div style=&quot;&quot;&gt;&lt;span style=&quot;background-color: transparent; color: light-dark(rgb(0, 0, 0), rgb(255, 255, 255));&quot;&gt;- repeatCounter = 0&lt;/span&gt;&lt;/div&gt;&lt;div style=&quot;&quot;&gt;- MemoryStream&lt;/div&gt;" style="text;html=1;align=left;verticalAlign=middle;resizable=0;points=[];autosize=1;strokeColor=none;fillColor=none;" parent="5a1P8sP_JlJ4V9t3fl8P-146" vertex="1">
          <mxGeometry x="215" y="565" width="130" height="70" as="geometry" />
        </mxCell>
        <mxCell id="5a1P8sP_JlJ4V9t3fl8P-145" value="END" style="rounded=1;whiteSpace=wrap;html=1;" parent="5a1P8sP_JlJ4V9t3fl8P-146" vertex="1">
          <mxGeometry x="405" y="15" width="120" height="60" as="geometry" />
        </mxCell>
        <mxCell id="5a1P8sP_JlJ4V9t3fl8P-102" style="edgeStyle=orthogonalEdgeStyle;rounded=0;orthogonalLoop=1;jettySize=auto;html=1;exitX=1;exitY=0.5;exitDx=0;exitDy=0;entryX=0;entryY=0.5;entryDx=0;entryDy=0;" parent="5a1P8sP_JlJ4V9t3fl8P-146" source="5a1P8sP_JlJ4V9t3fl8P-101" target="5a1P8sP_JlJ4V9t3fl8P-103" edge="1">
          <mxGeometry relative="1" as="geometry">
            <mxPoint x="195" y="94.42857142857144" as="targetPoint" />
          </mxGeometry>
        </mxCell>
        <mxCell id="5a1P8sP_JlJ4V9t3fl8P-101" value="START" style="rounded=1;whiteSpace=wrap;html=1;" parent="5a1P8sP_JlJ4V9t3fl8P-146" vertex="1">
          <mxGeometry x="35" y="65" width="120" height="60" as="geometry" />
        </mxCell>
        <mxCell id="5a1P8sP_JlJ4V9t3fl8P-103" value="newByte= MemoryStream.ReadByte()" style="rounded=1;whiteSpace=wrap;html=1;" parent="5a1P8sP_JlJ4V9t3fl8P-146" vertex="1">
          <mxGeometry x="195" y="65" width="170" height="60" as="geometry" />
        </mxCell>
        <mxCell id="5a1P8sP_JlJ4V9t3fl8P-139" style="edgeStyle=orthogonalEdgeStyle;rounded=0;orthogonalLoop=1;jettySize=auto;html=1;exitX=1;exitY=0.5;exitDx=0;exitDy=0;entryX=1;entryY=0.5;entryDx=0;entryDy=0;" parent="5a1P8sP_JlJ4V9t3fl8P-146" source="5a1P8sP_JlJ4V9t3fl8P-103" target="5a1P8sP_JlJ4V9t3fl8P-103" edge="1">
          <mxGeometry relative="1" as="geometry">
            <Array as="points" />
          </mxGeometry>
        </mxCell>
        <mxCell id="5a1P8sP_JlJ4V9t3fl8P-140" value="is last?" style="rhombus;whiteSpace=wrap;html=1;" parent="5a1P8sP_JlJ4V9t3fl8P-146" vertex="1">
          <mxGeometry x="580" y="55" width="80" height="80" as="geometry" />
        </mxCell>
        <mxCell id="5a1P8sP_JlJ4V9t3fl8P-143" style="edgeStyle=orthogonalEdgeStyle;rounded=0;orthogonalLoop=1;jettySize=auto;html=1;exitX=0.5;exitY=0;exitDx=0;exitDy=0;entryX=1;entryY=0.5;entryDx=0;entryDy=0;" parent="5a1P8sP_JlJ4V9t3fl8P-146" source="5a1P8sP_JlJ4V9t3fl8P-140" target="5a1P8sP_JlJ4V9t3fl8P-145" edge="1">
          <mxGeometry relative="1" as="geometry">
            <mxPoint x="485" y="25" as="targetPoint" />
            <Array as="points">
              <mxPoint x="620" y="45" />
            </Array>
          </mxGeometry>
        </mxCell>
      </root>
    </mxGraphModel>
  </diagram>
</mxfile>
